<?xml version="1.0" encoding="UTF-8"?>
<svg id="Layer_1" data-name="Layer 1" xmlns="http://www.w3.org/2000/svg" viewBox="0 0 2425.29 2510.14">
  <defs>
    <style>
      .cls-1 {
        opacity: .1;
      }

      .cls-2 {
        fill: #69633a;
        stroke-width: 0px;
      }
    </style>
  </defs>
  <g class="cls-1">
    <g>
      <path class="cls-2" d="M746.98,2306.54c-79.13-79.13-85.91-178.6-153.73-246.42-62.17-62.17-85.91-27.13-127.73-68.95-45.22-45.22-44.08-114.17-91.56-161.64-90.43-90.43-179.72-25.99-256.59-102.86-47.47-47.47-55.39-116.42-4.52-167.29,101.73-101.73,311.98-187.64,410.32-89.3,58.78,58.78,44.08,154.86,89.3,200.07,33.91,33.91,88.17,22.61,133.38,13.56,87.04-16.96,180.86-22.6,249.81,46.35,96.08,96.08,166.16,276.94,103.99,375.28-20.35,36.17-45.21,72.34-73.47,100.6-31.65,31.65-27.13,92.69-59.91,125.47-59.91,59.91-161.64,32.78-219.29-24.86ZM518.65,1587.64c-30.52-30.52-79.13-22.6-102.86-46.35-12.43-14.69-14.7-39.56-26-50.86-38.43-38.43-97.21-13.57-128.86,18.08-36.17,36.17-49.73,113.04-11.3,151.47,40.69,38.43,83.65-11.3,127.73,32.78,23.74,23.74,38.43,63.3,62.17,87.04,30.52,30.52,66.69,21.48,89.3-1.13,37.3-37.3,31.65-149.21-10.17-191.03ZM980.96,1993.44c-63.3-63.3-179.73-5.65-245.29-71.21-49.73-49.73-22.61-110.77-63.3-151.47-14.69-14.69-35.04-16.96-54.25,2.26-109.65,109.65-66.69,172.94,38.43,278.07,35.04,35.04,35.04,73.47,77.99,116.42,70.08,70.08,185.38,79.13,244.16,20.35,56.52-56.52,50.86-145.82,2.26-194.42Z"/>
      <path class="cls-2" d="M1186.67,1837.46c-108.51-108.51-126.6-280.33-243.02-396.75-36.17-36.17-80.26-68.95-126.6-90.43-81.39-42.96-150.34-41.82-215.9-107.39-51.99-51.99-39.56-107.38-4.52-142.42,45.21-45.21,115.3-51.99,160.51-6.78,62.17,62.17,38.43,142.43,92.69,196.68,35.04,35.04,82.52,50.87,119.82,88.17,45.21,42.95,63.3,99.47,107.38,143.55,72.34,72.34,197.81,91.56,275.81,165.03,64.43,64.43,97.21,151.47,49.73,198.94-50.86,50.86-153.73,13.56-215.9-48.61Z"/>
      <path class="cls-2" d="M1418.39,1551.49c-33.91-33.91-61.04-72.35-83.65-115.3-93.82-181.99-87.04-383.19-193.29-564.04-6.78-11.3-13.57-22.61-21.48-30.52-13.56-13.56-42.95-22.61-58.78-6.78-13.57,13.57-12.44,21.48-50.87,181.99-10.17,39.56-24.87,81.38-39.56,96.08-32.78,32.78-89.3,23.74-127.73-14.69-59.91-59.91-58.78-153.73-7.91-200.07,74.6-61.04,114.16-93.82,143.55-123.21,82.52-82.52,84.78-161.64,166.16-243.03,59.91-59.91,117.56-65.56,165.03-18.09,47.47,47.47,33.91,142.43-16.95,193.29-36.17,36.17-114.17,46.34-134.51,66.69-26,26,24.87,45.22,47.47,67.82,70.08,70.08,77.99,184.24,88.17,273.54,11.3,88.17,24.86,167.29,73.47,252.06,15.82,29.39,37.3,59.91,63.3,85.91,53.13,53.13,142.42,124.34,181.98,84.78,44.08-44.08-19.21-238.51-63.3-332.32-33.91-72.34-70.08-149.21-26-193.29,46.34-46.34,124.34,13.57,167.29,56.52,148.08,148.08,170.68,378.67,37.3,512.05-99.47,99.47-214.77,65.56-309.72-29.39Z"/>
      <path class="cls-2" d="M1932.7,1111.78c-48.61-48.61-88.17-124.34-113.04-189.9-14.7-41.82-23.74-96.08-55.39-125.47-68.95-64.43-41.82-102.86-50.86-166.16-13.57-85.91-39.56-114.17,4.52-226.07,23.73-59.91-29.39-106.26-36.18-113.04-27.13-27.13-73.47-21.47-89.3-5.65-39.56,39.56-37.3,96.08-47.47,144.68-4.52,29.39-12.44,59.91-30.52,77.99-30.52,30.52-74.6,9.04-101.73-13.57-61.04-52-67.82-153.73-7.91-213.64,24.87-24.87,113.03-52,144.68-83.65,36.17-36.17,30.52-87.04,56.52-113.03,16.95-16.96,61.04-2.26,83.64,20.34,80.26,80.26,81.39,146.95,90.43,259.98,9.04,108.51-46.35,157.12-28.26,238.51,16.96,77.99,74.6,90.43,91.56,139.03,9.04,40.69,23.74,73.47,48.6,98.34,33.91,33.91,91.56-7.91,128.86,29.39,36.17,36.17,23.74,102.86,59.91,139.03,22.61,22.61,51.99,18.09,66.69,3.39,20.35-20.35,18.08-58.78,16.96-93.82-12.44-73.47-40.69-144.69-46.35-213.64-2.26-31.65,2.26-63.3,19.22-80.25,27.13-27.13,72.34-6.78,105.12,26,84.78,84.78,169.55,228.33,98.34,299.54-37.3,37.3-100.6,44.08-135.64,79.12-28.26,28.26-33.91,110.77-73.47,150.34-42.95,42.95-137.9-6.78-198.94-67.82Z"/>
    </g>
  </g>
</svg>