<?xml version="1.0" encoding="UTF-8" standalone="no"?>
<svg
   id="Layer_1"
   data-name="Layer 1"
   viewBox="0 0 247.28 112.72"
   version="1.1"
   width="247.28"
   height="112.72"
   xmlns="http://www.w3.org/2000/svg"
   xmlns:svg="http://www.w3.org/2000/svg">
  <defs
     id="defs2">
    <style
       id="style1">
      .cls-1 {
        font-family: HouschkaPro-Bold, 'Houschka Pro';
        font-weight: 700;
        letter-spacing: 0em;
      }

      .cls-1, .cls-2, .cls-3 {
        font-size: 22px;
      }

      .cls-4 {
        clip-path: url(#clippath);
      }

      .cls-5, .cls-6, .cls-7 {
        fill: none;
      }

      .cls-5, .cls-8, .cls-9, .cls-10, .cls-11, .cls-12, .cls-13 {
        stroke-width: 0px;
      }

      .cls-14 {
        opacity: .1;
      }

      .cls-15, .cls-8 {
        fill: #5abf8b;
      }

      .cls-2 {
        letter-spacing: 0em;
      }

      .cls-2, .cls-16, .cls-3 {
        font-family: SpaceMono-Regular, 'Space Mono';
      }

      .cls-16 {
        font-size: 21px;
      }

      .cls-17 {
        clip-path: url(#clippath-2);
      }

      .cls-6 {
        stroke: #f5f8ec;
        stroke-width: 3.8px;
      }

      .cls-6, .cls-7 {
        stroke-miterlimit: 10;
      }

      .cls-7 {
        stroke: #fff;
        stroke-width: 2.07px;
      }

      .cls-18 {
        opacity: .47;
      }

      .cls-19 {
        opacity: .5;
      }

      .cls-20 {
        opacity: .95;
      }

      .cls-9 {
        fill: #fff;
      }

      .cls-10 {
        fill: #f0522e;
      }

      .cls-11 {
        fill: #f5f8ec;
      }

      .cls-12 {
        fill: #68623a;
      }

      .cls-13 {
        fill: #69633a;
      }
    </style>
  </defs>
  <g
     id="g104"
     transform="translate(-328.21,-987.03)">
    <g
       id="g100">
      <path
         class="cls-11"
         d="m 353.85,1099.75 -23.98,-23.98 26.31,-26.31 -26.31,-26.31 23.98,-23.75 50.29,50.06 z"
         id="path98" />
      <path
         class="cls-11"
         d="m 439.52,1099.75 -23.98,-23.98 26.31,-26.31 -26.31,-26.31 23.98,-23.75 50.29,50.06 z"
         id="path99" />
      <path
         class="cls-11"
         d="m 525.2,1099.75 -23.98,-23.98 26.31,-26.31 -26.31,-26.31 23.98,-23.75 50.29,50.06 z"
         id="path100" />
    </g>
    <g
       id="g103">
      <path
         class="cls-10"
         d="m 352.19,1087.38 -23.98,-23.98 26.31,-26.31 -26.31,-26.31 23.98,-23.75 50.29,50.06 z"
         id="path101" />
      <path
         class="cls-10"
         d="m 437.87,1087.38 -23.98,-23.98 26.31,-26.31 -26.31,-26.31 23.98,-23.75 50.29,50.06 z"
         id="path102" />
      <path
         class="cls-10"
         d="m 523.54,1087.38 -23.98,-23.98 26.31,-26.31 -26.31,-26.31 23.98,-23.75 50.29,50.06 z"
         id="path103" />
    </g>
  </g>
</svg>
