<?xml version="1.0" encoding="UTF-8" standalone="no"?>
<svg
   id="Layer_1"
   data-name="Layer 1"
   viewBox="0 0 404.5 384.60001"
   version="1.1"
   width="404.5"
   height="384.60001"
   xmlns="http://www.w3.org/2000/svg"
   xmlns:svg="http://www.w3.org/2000/svg">
  <defs
     id="defs3">
    <style
       id="style1">
      .cls-1 {
        font-family: HouschkaPro-Bold, 'Houschka Pro';
        font-weight: 700;
        letter-spacing: 0em;
      }

      .cls-1, .cls-2, .cls-3 {
        font-size: 22px;
      }

      .cls-4 {
        clip-path: url(#clippath);
      }

      .cls-5, .cls-6, .cls-7 {
        fill: none;
      }

      .cls-5, .cls-8, .cls-9, .cls-10, .cls-11, .cls-12, .cls-13, .cls-14 {
        stroke-width: 0px;
      }

      .cls-15 {
        opacity: .1;
      }

      .cls-16, .cls-8 {
        fill: #5abf8b;
      }

      .cls-6 {
        stroke: #5abf8b;
        stroke-width: 3.83px;
      }

      .cls-6, .cls-7 {
        stroke-miterlimit: 10;
      }

      .cls-2 {
        letter-spacing: 0em;
      }

      .cls-2, .cls-17, .cls-3 {
        font-family: SpaceMono-Regular, 'Space Mono';
      }

      .cls-17 {
        font-size: 21px;
      }

      .cls-18 {
        clip-path: url(#clippath-1);
      }

      .cls-19 {
        clip-path: url(#clippath-2);
      }

      .cls-7 {
        stroke: #fff;
        stroke-width: 2.07px;
      }

      .cls-20 {
        opacity: .47;
      }

      .cls-21 {
        opacity: .95;
      }

      .cls-9 {
        fill: #084529;
      }

      .cls-10 {
        fill: #fff;
      }

      .cls-11 {
        fill: #f0522e;
      }

      .cls-12 {
        fill: #f5f8ec;
      }

      .cls-13 {
        fill: #68623a;
      }

      .cls-14 {
        fill: #69633a;
      }
    </style>
  </defs>
  <g
     id="g173"
     transform="translate(-247.55,-701.18)">
    <path
       class="cls-12"
       d="m 249.59,808.69 c 0,-15.62 8.52,-29.82 21.91,-29.82 9.53,0 15.21,7.3 15.21,14.81 0,14.61 -17.85,22.52 -17.85,34.48 0.41,8.32 8.11,13.19 15.82,13.19 14.4,0 8.72,-9.13 16.23,-30.43 4.67,-12.78 10.35,-15.82 0.81,-26.37 -2.84,-3.65 -7.1,-6.29 -10.75,-9.74 -3.65,-3.45 -7.51,-6.9 -8.72,-11.97 -1.22,-3.25 -1.22,-7.1 -3.65,-9.53 -4.06,-3.85 -9.74,-1.42 -15.21,-2.03 -7.51,-0.61 -12.98,-8.72 -12.98,-16.84 0,-17.45 16.84,-30.43 36.72,-30.43 16.84,0 29.41,8.32 29.41,21.3 0,6.08 -3.85,12.17 -10.14,12.17 -5.27,0 -10.35,-3.65 -12.37,-8.52 -4.46,-9.74 -4.46,-16.23 -14.81,-16.23 -10.35,0 -14.81,7.91 -14.81,16.63 0,16.84 16.03,10.55 23.53,28.4 2.03,4.87 3.45,10.14 7.51,13.19 2.23,2.23 5.48,3.45 8.72,5.48 10.14,6.49 12.78,19.27 12.78,33.06 0,21.5 -10.55,40.57 -30.63,40.57 -21.91,0 -36.72,-19.88 -36.72,-41.38 z"
       id="path164" />
    <path
       class="cls-12"
       d="m 341.27,832.02 c 0,-17.04 11.56,-27.18 11.56,-43.82 0,-9.94 -5.07,-18.66 -5.07,-30.43 0,-19.68 11.97,-25.96 11.97,-36.51 0,-4.46 -2.03,-6.08 -4.67,-6.08 -6.09,0 -12.78,9.13 -21.91,9.13 -4.46,0 -8.11,-3.45 -8.11,-8.72 0,-7.5 8.11,-13.18 16.84,-13.18 12.17,0 18.66,6.9 29.82,6.9 6.49,0 12.78,-3.25 19.07,-3.25 7.71,0 13.19,4.26 13.19,12.17 0,7.1 -4.06,14.2 -11.77,14.2 -9.74,0 -9.13,-10.14 -16.63,-10.95 -3.25,0 -6.09,1.83 -7.51,3.25 -7.51,8.72 -12.37,22.11 -12.37,33.67 0,11.56 4.26,22.11 7.3,32.46 3.25,10.55 9.13,38.95 9.13,43.82 0,9.33 -4.46,16.03 -14.2,16.03 -9.74,0 -16.63,-8.11 -16.63,-18.66 z"
       id="path165" />
    <path
       class="cls-12"
       d="m 391.99,833.03 c -0.41,-14.81 20.29,-33.27 23.12,-42.4 0.81,-2.03 1.01,-4.26 1.01,-6.29 -0.41,-5.07 -1.62,-10.14 -1.83,-15.42 0,-19.88 14.2,-12.58 14.2,-33.27 0,-4.06 -0.41,-7.91 -0.61,-12.17 -0.2,-10.95 3.85,-20.08 11.97,-20.08 11.36,0 23.12,26.17 23.12,40.98 0,9.13 -4.26,17.85 -4.26,25.56 0.2,7.71 5.27,14.2 10.14,19.88 9.53,9.53 16.63,15.21 17.04,28.6 0.2,14 -7.51,30.43 -19.88,30.43 -10.75,0 -13.39,-9.94 -12.58,-22.11 1.42,-7.91 5.07,-15.42 5.07,-23.12 0,-9.13 -3.85,-17.04 -12.17,-17.04 -14.2,0 -18.66,16.03 -20.49,30.43 -2.43,16.84 -5.68,34.28 -21.1,34.28 -7.71,0 -12.58,-8.32 -12.78,-18.26 z m 59.03,-68.16 c 2.84,-6.49 3.85,-15.62 3.04,-23.12 -0.2,-7.71 -3.25,-13.79 -8.52,-13.79 -7.51,0 -12.37,8.52 -12.37,17.65 0,16.63 -11.16,11.76 -11.16,26.37 0,5.88 4.46,10.75 8.93,10.75 8.52,0 16.23,-8.92 20.08,-17.85 z"
       id="path166" />
    <path
       class="cls-12"
       d="m 538.24,833.84 c 0,-11.56 7.51,-21.91 7.51,-35.7 0,-5.27 -1.01,-9.74 -2.84,-12.17 -7.1,-9.33 -11.56,-12.98 -16.23,-12.98 -8.32,-0.2 -10.75,4.46 -10.75,10.95 0,14.2 7.3,27.18 7.3,40.16 0,12.98 -6.09,24.14 -16.23,24.14 -9.13,0 -15.42,-10.75 -15.42,-20.49 0,-19.88 16.84,-32.86 16.84,-58.42 0,-18.05 -11.77,-34.28 -11.77,-47.26 0,-10.95 6.09,-14.6 15.42,-14.6 3.45,0.41 7.1,1.01 10.55,1.01 11.36,0 16.84,-7.3 22.92,-7.3 12.17,0 16.84,13.59 15.82,26.78 -1.01,8.11 -7.71,15.42 -8.11,23.53 -0.41,12.78 -14,10.95 -14,16.84 0,4.46 5.48,11.56 8.11,14 5.88,6.08 4.46,13.39 9.13,20.29 3.85,5.27 10.14,8.32 12.78,14 1.42,3.25 2.23,6.69 2.23,10.14 0,10.95 -7.71,23.94 -18.66,23.94 -9.74,0 -14.6,-8.93 -14.6,-16.84 z m 0.41,-78.3 c 0,-7.91 5.07,-12.37 10.14,-16.03 1.83,-1.22 2.43,-2.84 2.43,-4.87 0,-7.71 -7.3,-19.47 -15.82,-19.47 -14.2,0 -18.66,21.91 -18.66,40.98 0,5.68 2.03,9.33 10.35,9.33 7.1,0 11.56,-3.65 11.56,-9.94 z"
       id="path167" />
    <path
       class="cls-12"
       d="m 589.36,832.02 c 0,-17.04 11.56,-27.18 11.56,-43.82 0,-9.94 -5.07,-18.66 -5.07,-30.43 0,-19.68 11.97,-25.96 11.97,-36.51 0,-4.46 -2.03,-6.08 -4.67,-6.08 -6.09,0 -12.78,9.13 -21.91,9.13 -4.46,0 -8.11,-3.45 -8.11,-8.72 0,-7.5 8.11,-13.18 16.84,-13.18 12.17,0 18.66,6.9 29.82,6.9 6.49,0 12.78,-3.25 19.07,-3.25 7.71,0 13.19,4.26 13.19,12.17 0,7.1 -4.06,14.2 -11.77,14.2 -9.74,0 -9.13,-10.14 -16.63,-10.95 -3.25,0 -6.09,1.83 -7.51,3.25 -7.5,8.72 -12.37,22.11 -12.37,33.67 0,11.56 4.26,22.11 7.3,32.46 3.25,10.55 9.13,38.95 9.13,43.82 0,9.33 -4.46,16.03 -14.2,16.03 -9.74,0 -16.63,-8.11 -16.63,-18.66 z"
       id="path168" />
    <path
       class="cls-12"
       d="m 247.56,1047.04 c 0,-37.32 19.68,-39.96 19.68,-60.65 -0.2,-11.16 -7.51,-21.5 -7.51,-32.66 0,-20.08 16.43,-24.95 30.63,-24.95 12.58,0 27.79,7.1 27.79,24.95 0,17.85 -9.74,24.34 -9.74,39.76 0,22.52 16.84,42.19 16.84,59.84 0,8.11 -3.25,12.78 -12.17,12.78 -6.69,0 -10.35,-8.32 -17.04,-9.13 4.06,7.71 15.62,11.36 15.62,20.89 0,5.68 -6.49,7.91 -10.75,7.91 -5.27,0 -9.74,-2.84 -9.74,-8.72 0,-3.25 1.01,-6.9 1.01,-10.35 0,-3.04 -1.01,-5.27 -2.64,-7.3 -5.88,4.67 -9.13,15.21 -19.47,15.21 -13.79,0 -22.52,-12.78 -22.52,-27.59 z m 35.29,6.69 c -4.26,-2.64 -8.93,-5.07 -10.75,-9.94 -2.43,-6.69 2.84,-12.78 10.35,-12.78 6.9,0 11.77,6.29 11.77,15.42 v 3.45 h 0.41 c 1.83,0.41 3.65,0.81 5.68,0.81 6.49,0 9.13,-4.87 9.13,-12.78 0,-19.07 -17.45,-45.24 -17.45,-58.02 0,-9.94 6.49,-16.63 6.49,-26.17 -0.61,-8.52 -5.48,-16.23 -11.97,-16.23 -7.71,0 -20.69,4.46 -20.69,17.24 0,10.75 6.69,19.88 6.69,31.04 0,21.3 -12.37,30.63 -12.37,55.38 0,10.55 3.25,18.05 14,18.05 5.48,0 6.49,-2.84 8.72,-5.48 z"
       id="path169" />
    <path
       class="cls-12"
       d="m 361.36,1056.37 c -3.65,-2.64 -8.32,-3.45 -12.58,-5.07 -10.75,-4.26 -17.65,-15.82 -17.65,-27.79 0,-16.84 9.53,-23.12 9.53,-36.51 0,-14.4 -11.77,-23.12 -11.77,-37.93 0,-10.95 6.9,-21.5 17.65,-21.5 8.93,0 14.2,7.3 14.2,16.43 0,8.52 -4.26,16.03 -8.11,23.12 -9.53,18.87 -0.81,12.98 -8.93,33.47 -3.25,7.3 -6.29,16.02 -6.29,22.11 0,8.93 5.48,16.23 12.37,16.23 8.52,0 8.32,-8.72 15.01,-8.72 7.3,0 13.59,11.36 14.6,21.1 0,5.48 0.41,11.36 6.29,11.36 6.69,0 10.35,-10.14 10.35,-18.66 0,-16.84 -11.36,-31.85 -11.36,-48.08 0,-5.07 8.93,-28.6 6.09,-34.48 -0.81,-5.68 -3.65,-10.95 -3.65,-17.04 0,-7.91 4.06,-12.78 10.75,-12.78 8.32,0 14,8.11 14,16.84 0,23.12 -18.86,21.1 -18.86,51.12 0,15.01 10.75,24.54 10.75,41.58 0,17.04 -9.13,34.08 -22.92,34.08 -9.94,0 -12.78,-13.79 -19.47,-18.87 z"
       id="path170" />
    <path
       class="cls-12"
       d="m 416.94,1059.41 c 0,-11.97 4.87,-24.54 9.13,-35.09 2.64,-7.51 5.88,-15.42 5.88,-23.33 -0.2,-14.81 -10.75,-23.94 -10.75,-38.34 0,-12.98 8.52,-24.95 21.5,-24.95 2.84,0 5.68,0.61 8.32,0.61 10.95,0 15.21,-12.37 24.75,-12.37 6.9,0 10.55,10.75 10.55,17.45 0,9.94 -7.91,17.45 -15.62,17.45 -7.71,0 -14,-9.33 -21.91,-9.33 -10.14,0 -18.05,9.94 -18.05,21.71 0,9.74 5.07,20.69 14,20.69 8.93,0 14.2,-12.37 23.12,-12.37 6.69,0 8.32,4.06 8.72,10.55 0,10.75 -5.68,18.26 -14,18.26 -8.93,0 -6.69,-9.74 -14,-9.74 -6.9,0 -18.87,30.02 -22.11,45.44 -1.42,8.72 -0.41,16.23 4.87,16.23 4.06,0 4.46,-10.35 14.2,-10.35 1.62,0 2.84,0.41 4.26,0.41 14.4,0 14.6,-24.95 28.2,-24.95 6.09,0 7.91,6.69 7.91,12.98 0,16.03 -6.69,31.04 -19.07,31.24 -8.93,0 -13.19,-12.37 -19.07,-11.16 -3.65,0 -6.29,4.46 -8.93,7.91 -3.04,4.06 -7.51,7.1 -11.77,7.1 -7.3,0 -10.14,-9.33 -10.14,-16.03 z"
       id="path171" />
    <path
       class="cls-12"
       d="m 493.21,1023.31 c 0,-10.75 6.09,-17.65 14.61,-17.65 22.31,0 20.89,51.93 40.16,51.93 7.3,0 12.78,-11.16 12.78,-21.71 0,-10.55 -7.3,-22.92 -16.43,-27.79 -5.88,-3.65 -12.78,-4.87 -16.84,-10.14 -3.85,-5.27 -4.46,-12.37 -7.71,-18.05 -8.52,-12.37 -22.92,-10.14 -22.92,-25.36 0,-18.86 13.59,-28.6 31.04,-28.6 18.46,0 39.96,15.82 39.96,33.27 0,8.32 -4.46,12.37 -11.36,12.37 -15.82,0 -22.11,-20.29 -31.85,-25.56 -2.03,-1.22 -4.26,-1.83 -6.49,-1.83 -6.69,0 -12.98,4.67 -12.98,11.16 0,6.09 4.87,10.35 9.53,12.37 4.06,1.83 7.91,3.25 10.95,6.69 5.68,5.68 5.68,15.82 11.36,21.71 5.27,6.29 13.59,6.08 20.08,10.75 9.94,7.3 11.36,19.68 11.36,31.85 0,20.08 -4.26,34.69 -23.73,34.69 -22.92,0 -51.52,-26.78 -51.52,-50.1 z"
       id="path172" />
    <path
       class="cls-12"
       d="m 589.15,1055.15 c 0,-17.04 11.56,-27.18 11.56,-43.82 0,-9.94 -5.07,-18.66 -5.07,-30.43 0,-19.68 11.97,-25.96 11.97,-36.51 0,-4.46 -2.03,-6.08 -4.67,-6.08 -6.09,0 -12.78,9.13 -21.91,9.13 -4.46,0 -8.11,-3.45 -8.11,-8.72 0,-7.5 8.11,-13.18 16.84,-13.18 12.17,0 18.66,6.9 29.82,6.9 6.49,0 12.78,-3.25 19.07,-3.25 7.71,0 13.19,4.26 13.19,12.17 0,7.1 -4.06,14.2 -11.77,14.2 -9.74,0 -9.13,-10.14 -16.63,-10.95 -3.25,0 -6.09,1.83 -7.51,3.25 -7.5,8.72 -12.37,22.11 -12.37,33.67 0,11.56 4.26,22.11 7.3,32.46 3.25,10.55 9.13,38.95 9.13,43.82 0,9.33 -4.46,16.03 -14.2,16.03 -9.74,0 -16.63,-8.11 -16.63,-18.66 z"
       id="path173" />
  </g>
</svg>
