<?xml version="1.0" encoding="UTF-8" standalone="no"?>
<svg
   id="Layer_1"
   data-name="Layer 1"
   viewBox="0 0 757.04999 393.51999"
   version="1.1"
   width="757.04999"
   height="393.51999"
   xmlns="http://www.w3.org/2000/svg"
   xmlns:svg="http://www.w3.org/2000/svg">
  <defs
     id="defs2">
    <style
       id="style1">
      .cls-1 {
        font-family: HouschkaPro-Bold, 'Houschka Pro';
        font-weight: 700;
        letter-spacing: 0em;
      }

      .cls-1, .cls-2, .cls-3 {
        font-size: 22px;
      }

      .cls-4 {
        clip-path: url(#clippath);
      }

      .cls-5, .cls-6, .cls-7 {
        fill: none;
      }

      .cls-5, .cls-8, .cls-9, .cls-10, .cls-11, .cls-12, .cls-13 {
        stroke-width: 0px;
      }

      .cls-14 {
        opacity: .1;
      }

      .cls-15, .cls-8 {
        fill: #5abf8b;
      }

      .cls-2 {
        letter-spacing: 0em;
      }

      .cls-2, .cls-16, .cls-3 {
        font-family: SpaceMono-Regular, 'Space Mono';
      }

      .cls-16 {
        font-size: 21px;
      }

      .cls-17 {
        clip-path: url(#clippath-2);
      }

      .cls-6 {
        stroke: #f5f8ec;
        stroke-width: 3.8px;
      }

      .cls-6, .cls-7 {
        stroke-miterlimit: 10;
      }

      .cls-7 {
        stroke: #fff;
        stroke-width: 2.07px;
      }

      .cls-18 {
        opacity: .47;
      }

      .cls-19 {
        opacity: .5;
      }

      .cls-20 {
        opacity: .95;
      }

      .cls-9 {
        fill: #fff;
      }

      .cls-10 {
        fill: #f0522e;
      }

      .cls-11 {
        fill: #f5f8ec;
      }

      .cls-12 {
        fill: #68623a;
      }

      .cls-13 {
        fill: #69633a;
      }
    </style>
  </defs>
  <g
     id="g89"
     transform="translate(-87.66,-500.51)">
    <path
       class="cls-10"
       d="m 112.21,836.3 c 0,-36.74 21.52,-61.41 21.52,-92.9 0,-28.87 -13.65,-26.24 -13.65,-45.66 0,-20.99 16.27,-36.74 16.27,-58.79 0,-41.99 -35.69,-47.76 -35.69,-83.45 0,-22.04 14.17,-39.89 37.79,-39.89 47.24,0 116,28.87 116,74.53 0,27.29 -25.72,46.19 -25.72,67.18 0,15.75 15.22,25.72 27.82,34.12 24.14,16.27 47.24,36.74 47.24,68.76 0,44.61 -25.72,102.87 -62.98,111.27 -13.12,3.67 -27.29,6.3 -40.42,6.3 -14.7,0 -27.82,15.22 -43.04,15.22 -27.82,0 -45.14,-29.92 -45.14,-56.69 z m 127.02,-18.37 c 0,-29.39 -40.42,-43.04 -40.42,-73.48 0,-23.09 20.47,-30.97 20.47,-49.86 0,-6.82 -4.2,-12.07 -13.12,-12.07 -50.91,0 -55.64,24.67 -55.64,73.48 0,16.27 -8.92,25.19 -8.92,45.14 0,32.54 24.67,61.41 51.96,61.41 27.29,0 45.66,-22.04 45.66,-44.61 z M 226.11,616.38 c 0,-14.17 -13.12,-23.62 -13.12,-34.64 0.52,-6.3 5.77,-12.6 5.77,-17.85 0,-17.85 -19.42,-25.72 -34.12,-25.72 -16.8,0 -37.79,14.7 -37.79,32.54 0.52,18.37 22.04,16.8 22.04,37.27 0,11.02 -5.77,23.62 -5.77,34.64 0,14.17 10.5,20.47 20.99,20.47 17.32,0 41.99,-27.29 41.99,-46.71 z"
       id="path86" />
    <path
       class="cls-10"
       d="m 323.2,829.47 c 0,-50.39 35.69,-94.48 35.69,-148.54 0,-16.8 -2.62,-34.64 -8.4,-50.39 -8.92,-28.87 -25.19,-44.61 -25.19,-75.06 0,-24.14 15.75,-34.12 32.02,-34.12 20.99,0 38.84,14.7 38.84,35.69 0,28.87 -24.14,41.99 -24.14,67.18 0,16.27 7.35,30.97 7.35,48.29 0.52,20.47 -8.4,37.79 -8.4,58.26 0,33.59 24.67,67.18 25.72,102.35 0,29.92 -12.6,57.74 -34.64,57.74 -23.62,0 -38.84,-32.54 -38.84,-61.41 z"
       id="path87" />
    <path
       class="cls-10"
       d="m 468.24,845.75 c 0,-44.09 29.92,-70.33 29.92,-113.37 0,-25.72 -13.12,-48.29 -13.12,-78.73 0,-50.91 30.97,-67.18 30.97,-94.48 0,-11.55 -5.25,-15.75 -12.07,-15.75 -15.75,0 -33.07,23.62 -56.69,23.62 -11.55,0 -20.99,-8.92 -20.99,-22.57 0,-19.42 20.99,-34.12 43.56,-34.12 31.49,0 48.29,17.85 77.16,17.85 16.8,0 33.07,-8.4 49.34,-8.4 19.95,0 34.12,11.02 34.12,31.49 0,18.37 -10.5,36.74 -30.44,36.74 -25.19,0 -23.62,-26.24 -43.04,-28.34 -8.4,0 -15.75,4.72 -19.42,8.4 -19.42,22.57 -32.02,57.21 -32.02,87.13 0,29.92 11.02,57.21 18.9,83.98 8.4,27.29 23.62,100.78 23.62,113.37 0,24.14 -11.55,41.46 -36.74,41.46 -25.19,0 -43.04,-20.99 -43.04,-48.29 z"
       id="path88" />
    <path
       class="cls-10"
       d="m 646.46,836.46 c 0,-64.9 24.53,-42.92 55.7,-95.04 4.6,-8.18 5.11,-17.88 5.11,-27.59 0,-45.99 8.69,-56.21 42.92,-87.38 19.93,-16.35 44.46,-39.86 44.46,-64.38 0,-9.2 -3.07,-11.75 -9.2,-11.75 -28.62,0 -66.43,66.43 -107.31,66.43 -21.97,0 -38.32,-18.4 -38.32,-35.77 0,-24.53 22.99,-43.94 47.52,-43.94 8.69,0 18.91,1.53 38.83,1.53 38.32,0 40.37,-18.91 74.6,-18.91 21.46,0 43.94,8.18 43.94,28.62 0,35.26 -32.7,29.13 -50.59,52.63 -10.22,14.31 -11.75,35.77 -22.99,51.1 -12.26,19.42 -38.83,25.04 -46.5,48.54 -6.13,16.35 -1.02,35.26 -7.66,50.59 -3.07,8.69 -4.6,14.82 -4.6,19.93 0,17.37 15.33,17.88 15.33,52.63 0,10.22 4.09,15.33 9.2,15.33 22.99,0 27.59,-57.74 66.43,-57.74 24.02,0 38.83,21.97 38.83,43.94 0,30.66 -27.08,56.72 -60.3,56.72 -19.42,0 -43.94,-20.44 -59.27,-20.44 -16.35,0 -27.59,21.46 -43.43,21.46 -20.95,0 -32.7,-21.46 -32.7,-46.5 z"
       id="path89" />
  </g>
  <g
     id="g93"
     transform="translate(-87.66,-500.51)">
    <path
       class="cls-11"
       d="m 99.21,826.46 c 0,-36.74 21.52,-61.41 21.52,-92.9 0,-28.87 -13.65,-26.24 -13.65,-45.66 0,-20.99 16.27,-36.74 16.27,-58.79 0,-41.99 -35.69,-47.76 -35.69,-83.45 0,-22.04 14.17,-39.89 37.79,-39.89 47.24,0 116,28.87 116,74.53 0,27.29 -25.72,46.19 -25.72,67.18 0,15.75 15.22,25.72 27.82,34.12 24.14,16.27 47.24,36.74 47.24,68.76 0,44.61 -25.72,102.87 -62.98,111.27 -13.12,3.67 -27.29,6.3 -40.42,6.3 -14.7,0 -27.82,15.22 -43.04,15.22 -27.82,0 -45.14,-29.92 -45.14,-56.69 z m 127.02,-18.37 c 0,-29.39 -40.42,-43.04 -40.42,-73.48 0,-23.09 20.47,-30.97 20.47,-49.86 0,-6.82 -4.2,-12.07 -13.12,-12.07 -50.91,0 -55.64,24.67 -55.64,73.48 0,16.27 -8.92,25.19 -8.92,45.14 0,32.54 24.67,61.41 51.96,61.41 27.29,0 45.66,-22.04 45.66,-44.61 z M 213.11,606.54 c 0,-14.17 -13.12,-23.62 -13.12,-34.64 0.52,-6.3 5.77,-12.6 5.77,-17.85 0,-17.85 -19.42,-25.72 -34.12,-25.72 -16.8,0 -37.79,14.7 -37.79,32.54 0.52,18.37 22.04,16.8 22.04,37.27 0,11.02 -5.77,23.62 -5.77,34.64 0,14.17 10.5,20.47 20.99,20.47 17.32,0 41.99,-27.29 41.99,-46.71 z"
       id="path90" />
    <path
       class="cls-11"
       d="m 310.2,819.64 c 0,-50.39 35.69,-94.48 35.69,-148.54 0,-16.8 -2.62,-34.64 -8.4,-50.39 -8.92,-28.87 -25.19,-44.61 -25.19,-75.06 0,-24.14 15.75,-34.12 32.02,-34.12 20.99,0 38.84,14.7 38.84,35.69 0,28.87 -24.14,41.99 -24.14,67.18 0,16.27 7.35,30.97 7.35,48.29 0.52,20.47 -8.4,37.79 -8.4,58.26 0,33.59 24.67,67.18 25.72,102.35 0,29.92 -12.6,57.74 -34.64,57.74 -23.62,0 -38.84,-32.54 -38.84,-61.41 z"
       id="path91" />
    <path
       class="cls-11"
       d="m 455.24,835.91 c 0,-44.09 29.92,-70.33 29.92,-113.37 0,-25.72 -13.12,-48.29 -13.12,-78.73 0,-50.91 30.97,-67.18 30.97,-94.48 0,-11.55 -5.25,-15.75 -12.07,-15.75 -15.75,0 -33.07,23.62 -56.69,23.62 -11.55,0 -20.99,-8.92 -20.99,-22.57 0,-19.42 20.99,-34.12 43.56,-34.12 31.49,0 48.29,17.85 77.16,17.85 16.8,0 33.07,-8.4 49.34,-8.4 19.95,0 34.12,11.02 34.12,31.49 0,18.37 -10.5,36.74 -30.44,36.74 -25.19,0 -23.62,-26.24 -43.04,-28.34 -8.4,0 -15.75,4.72 -19.42,8.4 -19.42,22.57 -32.02,57.21 -32.02,87.13 0,29.92 11.02,57.21 18.9,83.98 8.4,27.29 23.62,100.78 23.62,113.37 0,24.14 -11.55,41.46 -36.74,41.46 -25.19,0 -43.04,-20.99 -43.04,-48.29 z"
       id="path92" />
    <path
       class="cls-11"
       d="m 633.46,826.63 c 0,-64.9 24.53,-42.92 55.7,-95.04 4.6,-8.18 5.11,-17.88 5.11,-27.59 0,-45.99 8.69,-56.21 42.92,-87.38 19.93,-16.35 44.46,-39.86 44.46,-64.38 0,-9.2 -3.07,-11.75 -9.2,-11.75 -28.62,0 -66.43,66.43 -107.31,66.43 -21.97,0 -38.32,-18.4 -38.32,-35.77 0,-24.53 22.99,-43.94 47.52,-43.94 8.69,0 18.91,1.53 38.83,1.53 38.32,0 40.37,-18.91 74.6,-18.91 21.46,0 43.94,8.18 43.94,28.62 0,35.26 -32.7,29.13 -50.59,52.63 -10.22,14.31 -11.75,35.77 -22.99,51.1 -12.26,19.42 -38.83,25.04 -46.5,48.54 -6.13,16.35 -1.02,35.26 -7.66,50.59 -3.07,8.69 -4.6,14.82 -4.6,19.93 0,17.37 15.33,17.88 15.33,52.63 0,10.22 4.09,15.33 9.2,15.33 22.99,0 27.59,-57.74 66.43,-57.74 24.02,0 38.83,21.97 38.83,43.94 0,30.66 -27.08,56.72 -60.3,56.72 -19.42,0 -43.94,-20.44 -59.27,-20.44 -16.35,0 -27.59,21.46 -43.43,21.46 -20.95,0 -32.7,-21.46 -32.7,-46.5 z"
       id="path93" />
  </g>
</svg>
