<?xml version="1.0" encoding="UTF-8" standalone="no"?>
<svg
   id="Layer_1"
   data-name="Layer 1"
   viewBox="0 0 144.44001 74.48"
   version="1.1"
   sodipodi:docname="BITZ-Interface-Design_BITZ Logos.svg"
   width="144.44"
   height="74.480003"
   inkscape:export-filename="..\..\svgs\bitz_green.svg"
   inkscape:export-xdpi="96"
   inkscape:export-ydpi="96"
   xmlns:inkscape="http://www.inkscape.org/namespaces/inkscape"
   xmlns:sodipodi="http://sodipodi.sourceforge.net/DTD/sodipodi-0.dtd"
   xmlns="http://www.w3.org/2000/svg"
   xmlns:svg="http://www.w3.org/2000/svg">
  <sodipodi:namedview
     id="namedview29"
     pagecolor="#ffffff"
     bordercolor="#000000"
     borderopacity="0.25"
     inkscape:showpageshadow="2"
     inkscape:pageopacity="0.0"
     inkscape:pagecheckerboard="0"
     inkscape:deskcolor="#d1d1d1">
    <inkscape:page
       x="0"
       y="0"
       width="144.44"
       height="74.480003"
       id="page2"
       margin="0"
       bleed="0" />
  </sodipodi:namedview>
  <defs
     id="defs1">
    <style
       id="style1">
      .cls-1 {
        fill: #5abf8b;
      }

      .cls-1, .cls-2, .cls-3, .cls-4, .cls-5 {
        stroke-width: 0px;
      }

      .cls-2 {
        fill: #084529;
      }

      .cls-3 {
        fill: #f0522e;
      }

      .cls-4 {
        fill: #f5f8ec;
      }

      .cls-5 {
        fill: #68623a;
      }
    </style>
  </defs>
  <g
     id="g8"
     transform="translate(-217.89,-610.26)">
    <path
       class="cls-4"
       d="m 220.13,673.53 c 0,-7.13 4.18,-11.92 4.18,-18.04 0,-5.6 -2.65,-5.1 -2.65,-8.87 0,-4.08 3.16,-7.13 3.16,-11.41 0,-8.15 -6.93,-9.27 -6.93,-16.2 0,-4.28 2.75,-7.74 7.34,-7.74 9.17,0 22.52,5.6 22.52,14.47 0,5.3 -4.99,8.97 -4.99,13.04 0,3.06 2.96,4.99 5.4,6.62 4.69,3.16 9.17,7.13 9.17,13.35 0,8.66 -4.99,19.97 -12.23,21.6 -2.55,0.71 -5.3,1.22 -7.85,1.22 -2.85,0 -5.4,2.96 -8.36,2.96 -5.4,0 -8.76,-5.81 -8.76,-11.01 z m 24.66,-3.56 c 0,-5.71 -7.85,-8.36 -7.85,-14.27 0,-4.48 3.97,-6.01 3.97,-9.68 0,-1.32 -0.82,-2.34 -2.55,-2.34 -9.88,0 -10.8,4.79 -10.8,14.27 0,3.16 -1.73,4.89 -1.73,8.76 0,6.32 4.79,11.92 10.09,11.92 5.3,0 8.87,-4.28 8.87,-8.66 z m -2.54,-39.13 c 0,-2.75 -2.55,-4.59 -2.55,-6.73 0.1,-1.22 1.12,-2.45 1.12,-3.46 0,-3.46 -3.77,-4.99 -6.62,-4.99 -3.26,0 -7.34,2.85 -7.34,6.32 0.1,3.57 4.28,3.26 4.28,7.23 0,2.14 -1.12,4.59 -1.12,6.73 0,2.75 2.04,3.97 4.08,3.97 3.36,0 8.15,-5.3 8.15,-9.07 z"
       id="path5" />
    <path
       class="cls-4"
       d="m 261.1,672.21 c 0,-9.78 6.93,-18.34 6.93,-28.84 0,-3.26 -0.51,-6.73 -1.63,-9.78 -1.73,-5.6 -4.89,-8.66 -4.89,-14.57 0,-4.69 3.06,-6.62 6.22,-6.62 4.08,0 7.54,2.85 7.54,6.93 0,5.6 -4.69,8.15 -4.69,13.04 0,3.16 1.43,6.01 1.43,9.37 0.1,3.97 -1.63,7.34 -1.63,11.31 0,6.52 4.79,13.04 4.99,19.87 0,5.81 -2.45,11.21 -6.73,11.21 -4.59,0 -7.54,-6.32 -7.54,-11.92 z"
       id="path6" />
    <path
       class="cls-4"
       d="m 289.25,675.37 c 0,-8.56 5.81,-13.65 5.81,-22.01 0,-4.99 -2.55,-9.37 -2.55,-15.29 0,-9.88 6.01,-13.04 6.01,-18.34 0,-2.24 -1.02,-3.06 -2.34,-3.06 -3.06,0 -6.42,4.59 -11.01,4.59 -2.24,0 -4.08,-1.73 -4.08,-4.38 0,-3.77 4.08,-6.62 8.46,-6.62 6.11,0 9.37,3.46 14.98,3.46 3.26,0 6.42,-1.63 9.58,-1.63 3.87,0 6.62,2.14 6.62,6.11 0,3.57 -2.04,7.13 -5.91,7.13 -4.89,0 -4.59,-5.1 -8.36,-5.5 -1.63,0 -3.06,0.92 -3.77,1.63 -3.77,4.38 -6.22,11.11 -6.22,16.92 0,5.81 2.14,11.11 3.67,16.3 1.63,5.3 4.59,19.56 4.59,22.01 0,4.69 -2.24,8.05 -7.13,8.05 -4.89,0 -8.36,-4.08 -8.36,-9.37 z"
       id="path7" />
    <path
       class="cls-4"
       d="m 323.85,673.57 c 0,-12.6 4.76,-8.33 10.81,-18.45 0.89,-1.59 0.99,-3.47 0.99,-5.36 0,-8.93 1.69,-10.91 8.33,-16.96 3.87,-3.17 8.63,-7.74 8.63,-12.5 0,-1.79 -0.6,-2.28 -1.79,-2.28 -5.56,0 -12.9,12.9 -20.83,12.9 -4.27,0 -7.44,-3.57 -7.44,-6.94 0,-4.76 4.46,-8.53 9.23,-8.53 1.69,0 3.67,0.3 7.54,0.3 7.44,0 7.84,-3.67 14.48,-3.67 4.17,0 8.53,1.59 8.53,5.56 0,6.85 -6.35,5.65 -9.82,10.22 -1.98,2.78 -2.28,6.94 -4.46,9.92 -2.38,3.77 -7.54,4.86 -9.03,9.42 -1.19,3.17 -0.2,6.85 -1.49,9.82 -0.6,1.69 -0.89,2.88 -0.89,3.87 0,3.37 2.98,3.47 2.98,10.22 0,1.98 0.79,2.98 1.79,2.98 4.46,0 5.36,-11.21 12.9,-11.21 4.66,0 7.54,4.27 7.54,8.53 0,5.95 -5.26,11.01 -11.71,11.01 -3.77,0 -8.53,-3.97 -11.51,-3.97 -3.17,0 -5.36,4.17 -8.43,4.17 -4.07,0 -6.35,-4.17 -6.35,-9.03 z"
       id="path8" />
  </g>
</svg>
