<?xml version="1.0" encoding="UTF-8" standalone="no"?>
<svg
   id="Layer_1"
   data-name="Layer 1"
   viewBox="0 0 572.04999 151.75003"
   version="1.1"
   width="572.04999"
   height="151.75003"
   xmlns="http://www.w3.org/2000/svg"
   xmlns:svg="http://www.w3.org/2000/svg">
  <defs
     id="defs2">
    <style
       id="style1">
      .cls-1, .cls-2, .cls-3, .cls-4 {
        fill: none;
      }

      .cls-1, .cls-5, .cls-6, .cls-7 {
        stroke-width: 0px;
      }

      .cls-8 {
        opacity: .1;
      }

      .cls-2 {
        stroke: #f5f8ec;
        stroke-width: 3.83px;
      }

      .cls-2, .cls-3, .cls-9, .cls-4 {
        stroke-miterlimit: 10;
      }

      .cls-10 {
        clip-path: url(#clippath-1);
      }

      .cls-11 {
        clip-path: url(#clippath-2);
      }

      .cls-3 {
        stroke-width: 4px;
      }

      .cls-3, .cls-9, .cls-4 {
        stroke: #f0522e;
      }

      .cls-12 {
        fill: #f0522e;
        font-family: SpaceMono-Regular, 'Space Mono';
        font-size: 40px;
      }

      .cls-9 {
        stroke-width: 2.34px;
      }

      .cls-9, .cls-6 {
        fill: #f5f8ec;
      }

      .cls-4 {
        stroke-width: 3.58px;
      }

      .cls-5 {
        fill: #5abf8b;
      }

      .cls-7 {
        fill: #69633a;
      }
    </style>
  </defs>
  <g
     id="g40"
     transform="translate(-141.34042,-860.93617)">
    <path
       class="cls-6"
       d="m 183.69,751.25 h 2.4 v -21.76 h -2.4 v -3.12 h 11.32 c 1.33,0 2.51,0.19 3.54,0.56 1.03,0.37 1.89,0.88 2.6,1.52 0.71,0.64 1.24,1.41 1.6,2.3 0.36,0.89 0.54,1.86 0.54,2.9 v 0.48 c 0,0.77 -0.12,1.48 -0.36,2.12 -0.24,0.64 -0.57,1.21 -1,1.72 -0.43,0.51 -0.93,0.94 -1.5,1.3 -0.57,0.36 -1.19,0.63 -1.86,0.82 v 0.48 c 1.33,0.37 2.45,1.09 3.36,2.14 0.91,1.05 1.36,2.34 1.36,3.86 v 0.48 c 0,1.04 -0.18,2.01 -0.54,2.9 -0.36,0.89 -0.89,1.67 -1.6,2.32 -0.71,0.65 -1.57,1.17 -2.6,1.54 -1.03,0.37 -2.21,0.56 -3.54,0.56 h -11.32 z m 5.76,-12.48 h 5.44 c 1.6,0 2.87,-0.41 3.8,-1.24 0.93,-0.83 1.4,-1.96 1.4,-3.4 v -0.24 c 0,-1.36 -0.49,-2.43 -1.48,-3.22 -0.99,-0.79 -2.27,-1.18 -3.84,-1.18 h -5.32 z m 0,12.48 h 5.32 c 1.57,0 2.85,-0.39 3.84,-1.18 0.99,-0.79 1.48,-1.87 1.48,-3.26 v -0.24 c 0,-1.44 -0.47,-2.58 -1.4,-3.42 -0.93,-0.84 -2.2,-1.26 -3.8,-1.26 h -5.44 z"
       id="path21" />
    <path
       class="cls-6"
       d="m 209.25,726.37 h 17.76 v 3.12 h -7.2 v 21.76 h 7.2 v 3.12 h -17.76 v -3.12 h 7.2 v -21.76 h -7.2 z"
       id="path22" />
    <path
       class="cls-6"
       d="m 232.77,737.25 c 0,-3.63 0.87,-6.44 2.6,-8.44 1.73,-2 4.15,-3 7.24,-3 3.09,0 5.51,1 7.24,3 1.73,2 2.6,4.81 2.6,8.44 v 6.24 c 0,3.73 -0.87,6.57 -2.6,8.52 -1.73,1.95 -4.15,2.92 -7.24,2.92 -3.09,0 -5.51,-0.97 -7.24,-2.92 -1.73,-1.95 -2.6,-4.79 -2.6,-8.52 z m 9.84,14.56 c 2.16,0 3.78,-0.74 4.86,-2.22 1.08,-1.48 1.62,-3.59 1.62,-6.34 v -5.76 c 0,-2.56 -0.54,-4.63 -1.62,-6.2 -1.08,-1.57 -2.7,-2.36 -4.86,-2.36 -2.16,0 -3.78,0.79 -4.86,2.36 -1.08,1.57 -1.62,3.64 -1.62,6.2 v 5.76 c 0,2.75 0.54,4.86 1.62,6.34 1.08,1.48 2.7,2.22 4.86,2.22 z"
       id="path23" />
    <path
       class="cls-6"
       d="m 257.77,726.37 h 9.2 c 3.47,0 6,0.83 7.6,2.48 1.6,1.65 2.4,4.29 2.4,7.92 v 7.2 c 0,3.63 -0.8,6.27 -2.4,7.92 -1.6,1.65 -4.13,2.48 -7.6,2.48 h -9.2 v -3.16 h 2.4 v -21.72 h -2.4 z m 8.72,24.88 c 1.23,0 2.29,-0.12 3.18,-0.36 0.89,-0.24 1.63,-0.65 2.22,-1.22 0.59,-0.57 1.02,-1.34 1.3,-2.3 0.28,-0.96 0.42,-2.17 0.42,-3.64 v -6.72 c 0,-1.47 -0.14,-2.68 -0.42,-3.64 -0.28,-0.96 -0.71,-1.73 -1.3,-2.3 -0.59,-0.57 -1.33,-0.98 -2.22,-1.22 -0.89,-0.24 -1.95,-0.36 -3.18,-0.36 h -2.96 v 21.76 z"
       id="path24" />
    <path
       class="cls-6"
       d="m 282.69,726.37 h 17.76 v 3.12 h -7.2 v 21.76 h 7.2 v 3.12 h -17.76 v -3.12 h 7.2 v -21.76 h -7.2 z"
       id="path25" />
    <path
       class="cls-6"
       d="m 304.89,726.37 h 3.6 l 7.32,26.56 h 0.48 l 7.32,-26.56 h 3.6 l -7.92,28 h -6.48 z"
       id="path26" />
    <path
       class="cls-6"
       d="m 332.05,726.37 h 16.96 v 3.12 h -13.6 v 9.28 h 13.36 v 3.12 h -13.36 v 9.36 h 13.84 v 3.12 h -17.2 z"
       id="path27" />
    <path
       class="cls-6"
       d="m 373.77,754.37 h -3.36 v -9.36 c 0,-0.69 -0.16,-1.23 -0.48,-1.6 -0.32,-0.37 -0.88,-0.56 -1.68,-0.56 h -8.72 v 11.52 h -3.36 v -28 h 10 c 1.44,0 2.69,0.21 3.76,0.62 1.07,0.41 1.95,0.97 2.66,1.66 0.71,0.69 1.24,1.5 1.6,2.42 0.36,0.92 0.54,1.89 0.54,2.9 v 1.2 c 0,1.04 -0.29,2.08 -0.86,3.12 -0.57,1.04 -1.46,1.84 -2.66,2.4 v 0.48 c 0.8,0.13 1.43,0.45 1.88,0.96 0.45,0.51 0.68,1.23 0.68,2.16 z m -14.24,-14.64 h 6.24 c 1.89,0 3.3,-0.41 4.22,-1.22 0.92,-0.81 1.38,-2.01 1.38,-3.58 v -0.72 c 0,-1.41 -0.46,-2.55 -1.38,-3.42 -0.92,-0.87 -2.33,-1.3 -4.22,-1.3 h -6.24 z"
       id="path28" />
    <path
       class="cls-6"
       d="m 396.09,734.45 c 0,-0.91 -0.18,-1.71 -0.54,-2.4 -0.36,-0.69 -0.85,-1.27 -1.46,-1.72 -0.61,-0.45 -1.32,-0.8 -2.12,-1.04 -0.8,-0.24 -1.64,-0.36 -2.52,-0.36 -0.77,0 -1.51,0.1 -2.2,0.3 -0.69,0.2 -1.31,0.49 -1.86,0.86 -0.55,0.37 -0.98,0.83 -1.3,1.38 -0.32,0.55 -0.48,1.18 -0.48,1.9 v 0.24 c 0,0.77 0.16,1.43 0.48,1.98 0.32,0.55 0.79,1.01 1.42,1.4 0.63,0.39 1.41,0.71 2.34,0.96 0.93,0.25 2.03,0.47 3.28,0.66 2.93,0.45 5.09,1.31 6.48,2.58 1.39,1.27 2.08,2.97 2.08,5.1 v 0.48 c 0,1.2 -0.21,2.3 -0.62,3.3 -0.41,1 -1.03,1.86 -1.84,2.58 -0.81,0.72 -1.82,1.28 -3.02,1.68 -1.2,0.4 -2.59,0.6 -4.16,0.6 -1.79,0 -3.37,-0.26 -4.74,-0.78 -1.37,-0.52 -2.52,-1.24 -3.44,-2.16 -0.92,-0.92 -1.62,-2 -2.1,-3.24 -0.48,-1.24 -0.72,-2.59 -0.72,-4.06 v -1.2 h 3.36 v 0.96 c 0,2.45 0.67,4.29 2.02,5.52 1.35,1.23 3.22,1.84 5.62,1.84 2.08,0 3.65,-0.46 4.7,-1.38 1.05,-0.92 1.58,-2.14 1.58,-3.66 v -0.24 c 0,-1.47 -0.54,-2.59 -1.62,-3.36 -1.08,-0.77 -2.83,-1.33 -5.26,-1.68 -1.41,-0.19 -2.69,-0.47 -3.82,-0.86 -1.13,-0.39 -2.1,-0.89 -2.9,-1.52 -0.8,-0.63 -1.41,-1.38 -1.84,-2.26 -0.43,-0.88 -0.64,-1.92 -0.64,-3.12 v -0.48 c 0,-1.09 0.23,-2.09 0.68,-3 0.45,-0.91 1.09,-1.69 1.9,-2.36 0.81,-0.67 1.79,-1.18 2.92,-1.54 1.13,-0.36 2.38,-0.54 3.74,-0.54 1.57,0 2.98,0.23 4.22,0.68 1.24,0.45 2.29,1.06 3.14,1.82 0.85,0.76 1.5,1.65 1.94,2.68 0.44,1.03 0.66,2.1 0.66,3.22 v 1.68 h -3.36 z"
       id="path29" />
    <path
       class="cls-6"
       d="m 405.09,726.37 h 17.76 v 3.12 h -7.2 v 21.76 h 7.2 v 3.12 h -17.76 v -3.12 h 7.2 v -21.76 h -7.2 z"
       id="path30" />
    <path
       class="cls-6"
       d="m 428.61,726.37 h 19.68 v 3.12 h -8.16 v 24.88 h -3.36 v -24.88 h -8.16 z"
       id="path31" />
    <path
       class="cls-6"
       d="m 461.25,744.53 h -0.72 l -8.76,-18.16 h 3.76 l 7.16,15.28 h 0.48 l 7.16,-15.28 h 3.76 l -8.76,18.16 h -0.72 v 9.84 h -3.36 z"
       id="path32" />
    <path
       class="cls-6"
       d="m 520.85,754.37 h -6.12 l -2.6,-26.56 h -0.48 l -2.6,26.56 h -6.12 l -2.84,-28 h 3.04 l 2.68,26.56 h 0.48 l 2.52,-26.56 h 6.16 l 2.52,26.56 h 0.48 l 2.68,-26.56 h 3.04 z"
       id="path33" />
    <path
       class="cls-6"
       d="m 527.5,726.37 h 17.76 v 3.12 h -7.2 v 21.76 h 7.2 v 3.12 H 527.5 v -3.12 h 7.2 v -21.76 h -7.2 z"
       id="path34" />
    <path
       class="cls-6"
       d="m 551.02,726.37 h 19.68 v 3.12 h -8.16 v 24.88 h -3.36 v -24.88 h -8.16 z"
       id="path35" />
    <path
       class="cls-6"
       d="m 576.02,726.37 h 3.36 v 12.4 h 11.92 v -12.4 h 3.36 v 28 h -3.36 v -12.48 h -11.92 v 12.48 h -3.36 z"
       id="path36" />
    <path
       class="cls-6"
       d="m 624.34,751.25 h 2.4 v -21.76 h -2.4 v -3.12 h 11.32 c 1.33,0 2.51,0.19 3.54,0.56 1.03,0.37 1.89,0.88 2.6,1.52 0.71,0.64 1.24,1.41 1.6,2.3 0.36,0.89 0.54,1.86 0.54,2.9 v 0.48 c 0,0.77 -0.12,1.48 -0.36,2.12 -0.24,0.64 -0.57,1.21 -1,1.72 -0.43,0.51 -0.93,0.94 -1.5,1.3 -0.57,0.36 -1.19,0.63 -1.86,0.82 v 0.48 c 1.33,0.37 2.45,1.09 3.36,2.14 0.91,1.05 1.36,2.34 1.36,3.86 v 0.48 c 0,1.04 -0.18,2.01 -0.54,2.9 -0.36,0.89 -0.89,1.67 -1.6,2.32 -0.71,0.65 -1.57,1.17 -2.6,1.54 -1.03,0.37 -2.21,0.56 -3.54,0.56 h -11.32 z m 5.76,-12.48 h 5.44 c 1.6,0 2.87,-0.41 3.8,-1.24 0.93,-0.83 1.4,-1.96 1.4,-3.4 v -0.24 c 0,-1.36 -0.49,-2.43 -1.48,-3.22 -0.99,-0.79 -2.27,-1.18 -3.84,-1.18 h -5.32 z m 0,12.48 h 5.32 c 1.57,0 2.85,-0.39 3.84,-1.18 0.99,-0.79 1.48,-1.87 1.48,-3.26 v -0.24 c 0,-1.44 -0.47,-2.58 -1.4,-3.42 -0.93,-0.84 -2.2,-1.26 -3.8,-1.26 h -5.44 z"
       id="path37" />
    <path
       class="cls-6"
       d="m 649.9,726.37 h 17.76 v 3.12 h -7.2 v 21.76 h 7.2 v 3.12 H 649.9 v -3.12 h 7.2 v -21.76 h -7.2 z"
       id="path38" />
    <path
       class="cls-6"
       d="m 673.42,726.37 h 19.68 v 3.12 h -8.16 v 24.88 h -3.36 v -24.88 h -8.16 z"
       id="path39" />
    <path
       class="cls-6"
       d="m 698.58,726.37 h 18.72 v 5.04 l -16.8,19.36 v 0.48 h 17.28 v 3.12 h -20.16 v -5.04 l 16.8,-19.36 v -0.48 h -15.84 z"
       id="path40" />
    <path
       class="cls-6"
       d="m 176.64042,999.67617 c -7.1,0 -12.78,8.11003 -20.29,8.11003 -8.72,0 -15.01,-12.17003 -15.01,-22.11003 0,-16.84 14.2,-30.83 14.2,-48.28 0,-30.83 -14.2,-34.69 -14.2,-54.16 0,-9.53 8.72,-17.44 16.23,-17.44 7.51,0 10.55,7.5 18.26,7.5 8.32,0 14.4,-8.32 23.33,-8.32 8.93,0 10.75,7.71 10.75,14.4 0,12.78 -7.51,23.73 -16.84,23.73 -12.58,0 -14,-17.65 -24.54,-17.65 -8.11,0 -9.74,7.71 -9.74,17.45 0,17.65 1.42,29.62 11.36,29.62 8.92,0 15.62,-12.37 23.33,-12.37 6.9,0 9.53,8.93 9.53,15.42 0,10.34 -5.27,17.24 -12.37,17.24 -8.72,0 -12.78,-11.97 -20.89,-11.97 -6.49,0 -8.92,8.93 -8.92,17.65 0,14.2 5.88,33.47 14.4,33.47 11.16,0 22.92,-25.56 31.04,-25.56 7.5,0 9.53,8.32 9.53,16.63 0,15.01 -4.46,27.38003 -14.81,27.38003 -8.32,0 -15.42,-10.75003 -24.34,-10.75003 z"
       id="path14"
       style="fill:#f5f8ec;stroke-width:0px" />
    <path
       class="cls-6"
       d="m 219.84042,988.32617 c 0,-3.85 0.81,-7.91 2.23,-10.55 5.68,-11.76 24.14,-7.1 29.41,-18.66 3.04,-6.08 0.61,-13.79 3.04,-20.29 1.62,-5.27 6.69,-8.92 6.69,-15.21 0,-16.43 -28.6,-14.4 -28.6,-40.37 0,-10.75 6.08,-18.26 14.6,-18.26 12.78,0 13.59,15.62 13.59,27.99 0,11.16 4.06,26.57 10.34,26.57 6.28,0 6.49,-12.78 7.91,-27.79 1.42,-13.59 7.1,-25.56 16.84,-25.56 8.72,0 12.58,8.52 12.58,18.26 0,20.08 -11.16,27.18 -27.59,37.12 -2.84,1.62 -3.85,3.04 -3.85,4.46 0,2.43 2.43,5.27 7.1,9.13 11.56,10.14 23.12,31.64 23.12,47.06 0,13.39 -8.11,25.15003 -19.07,25.15003 -8.11,0 -10.35,-6.49 -10.35,-15.21003 0,-12.78 4.06,-27.79 4.06,-39.76 0,-11.97 -6.29,-21.7 -11.36,-21.7 -2.23,0 -6.29,1.83 -7.5,6.29 -3.04,9.13 4.46,71.40003 -28.2,71.40003 -8.32,0 -15.01,-10.55003 -15.01,-20.08003 z"
       id="path15"
       style="fill:#f5f8ec;stroke-width:0px" />
    <path
       class="cls-6"
       d="m 324.92042,989.94617 c 0,-18.05 11.97,-31.04 11.97,-50.92 0,-22.11 -3.45,-15.01 -16.43,-44.42 -1.42,-3.85 -2.64,-8.52 -2.64,-12.78 0,-10.75 7.1,-18.26 18.05,-18.26 3.85,0 7.71,0.81 11.56,1.83 8.11,1.83 17.85,-0.2 26.78,3.85 8.11,3.65 15.21,12.37 15.21,22.52 0,5.07 -2.03,10.34 -2.03,15.42 0,8.93 6.09,9.94 6.09,16.84 0,6.9 -5.88,12.98 -14,12.98 -6.29,0 -14.4,-3.65 -20.08,-3.85 -9.53,0 -15.21,10.14 -15.21,18.26 0,11.77 14.2,31.64 14.2,46.66 0,9.53003 -6.08,14.61003 -14.2,14.61003 -13.19,0 -19.27,-10.55 -19.27,-22.72003 z m 29.41,-82.77 c 6.29,0 4.46,4.46 11.56,4.46 10.95,0 16.63,-4.67 16.63,-14.81 0,-13.79 -11.16,-22.92 -26.37,-22.92 -12.78,0 -24.14,6.09 -24.14,18.87 0,10.95 1.83,21.5 10.14,21.5 4.46,0 7.5,-7.1 12.17,-7.1 z"
       id="path16"
       style="fill:#f5f8ec;stroke-width:0px" />
    <path
       class="cls-6"
       d="m 393.08042,987.91617 c 0,-24.95 16.84,-38.54 17.45,-62.88 0,-12.58 -4.06,-27.79 -4.06,-36.11 0,-13.18 8.32,-24.14 19.68,-24.14 9.33,0 12.78,5.88 12.78,14 0,26.98 -23.53,22.92 -23.53,59.03 0,22.72 -11.36,26.57 -11.36,45.64 0,6.09 2.43,11.97 8.11,11.97 17.04,0 18.05,-42.8 37.33,-42.8 7.5,0 11.36,8.52 11.36,17.45 0,13.59 -6.49,29.62 -18.05,29.62 -6.9,0 -8.72,-6.29 -13.59,-6.29 -8.32,0 -10.55,17.44003 -20.89,17.44003 -9.13,0 -15.21,-11.97003 -15.21,-22.92003 z"
       id="path17"
       style="fill:#f5f8ec;stroke-width:0px" />
    <path
       class="cls-6"
       d="m 468.94042,985.88617 c 0,-18.46 9.94,-29.01 9.94,-46.86 -0.2,-15.01 -9.53,-29.62 -9.53,-45.03 0,-17.04 14.4,-30.63 28.6,-29.41 17.04,0 34.89,17.24 34.89,36.11 0,10.55 -5.88,19.47 -5.88,29.82 0,15.62 17.04,19.88 16.84,34.28 0.2,27.59 -28.6,47.67003 -48.89,47.67003 -15.01,0 -25.96,-10.95 -25.96,-26.57003 z m 38.34,-16.23 c 4.26,0 8.32,4.46 12.98,4.46 3.25,0 5.48,-2.84 5.48,-5.88 0,-9.94 -13.59,-28.2 -13.59,-40.77 0,-12.57 12.17,-19.47 12.17,-31.44 0,-11.97 -12.98,-23.73 -25.36,-23.73 -9.33,0 -17.44,6.9 -17.44,16.43 0,13.59 16.43,19.47 16.43,34.08 0,16.02 -15.21,39.35 -15.21,54.57 0,6.08 2.43,10.14 5.68,10.14 8.11,0 8.32,-17.85 18.87,-17.85 z"
       id="path18"
       style="fill:#f5f8ec;stroke-width:0px" />
    <path
       class="cls-6"
       d="m 598.77042,993.59617 c 0,-11.56 7.51,-21.91 7.51,-35.7 0,-5.27 -1.01,-9.74 -2.84,-12.17 -7.1,-9.33 -11.56,-12.98 -16.23,-12.98 -8.32,-0.2 -10.75,4.46 -10.75,10.95 0,14.2 7.3,27.18 7.3,40.16 0,12.98 -6.09,24.14003 -16.23,24.14003 -9.13,0 -15.42,-10.75003 -15.42,-20.49003 0,-19.88 16.84,-32.86 16.84,-58.42 0,-18.05 -11.76,-34.28 -11.76,-47.26 0,-10.95 6.08,-14.6 15.42,-14.6 3.45,0.41 7.1,1.01 10.55,1.01 11.36,0 16.84,-7.3 22.92,-7.3 12.17,0 16.84,13.59 15.82,26.78 -1.01,8.11 -7.71,15.42 -8.11,23.53 -0.41,12.78 -14,10.95 -14,16.84 0,4.46 5.48,11.56 8.11,14 5.88,6.08 4.46,13.39 9.13,20.29 3.85,5.27 10.14,8.32 12.78,14 1.42,3.25 2.23,6.69 2.23,10.14 0,10.95 -7.71,23.94003 -18.66,23.94003 -9.74,0 -14.61,-8.93 -14.61,-16.84003 z m 0.4,-78.3 c 0,-7.91 5.07,-12.37 10.14,-16.03 1.83,-1.22 2.43,-2.84 2.43,-4.87 0,-7.71 -7.3,-19.47 -15.82,-19.47 -14.2,0 -18.66,21.91 -18.66,40.98 0,5.68 2.03,9.33 10.34,9.33 7.1,0 11.56,-3.65 11.56,-9.94 z"
       id="path19"
       style="fill:#f5f8ec;stroke-width:0px" />
    <path
       class="cls-6"
       d="m 674.23042,999.67617 c -7.1,0 -12.78,8.11003 -20.29,8.11003 -8.72,0 -15.01,-12.17003 -15.01,-22.11003 0,-16.84 14.2,-30.83 14.2,-48.28 0,-30.83 -14.2,-34.69 -14.2,-54.16 0,-9.53 8.72,-17.44 16.23,-17.44 7.51,0 10.55,7.5 18.26,7.5 8.32,0 14.4,-8.32 23.33,-8.32 8.93,0 10.75,7.71 10.75,14.4 0,12.78 -7.51,23.73 -16.84,23.73 -12.58,0 -14,-17.65 -24.54,-17.65 -8.11,0 -9.74,7.71 -9.74,17.45 0,17.65 1.42,29.62 11.36,29.62 8.92,0 15.62,-12.37 23.33,-12.37 6.9,0 9.53,8.93 9.53,15.42 0,10.34 -5.27,17.24 -12.37,17.24 -8.72,0 -12.78,-11.97 -20.89,-11.97 -6.49,0 -8.92,8.93 -8.92,17.65 0,14.2 5.88,33.47 14.4,33.47 11.16,0 22.92,-25.56 31.04,-25.56 7.5,0 9.53,8.32 9.53,16.63 0,15.01 -4.46,27.38003 -14.81,27.38003 -8.32,0 -15.42,-10.75003 -24.34,-10.75003 z"
       id="path20"
       style="fill:#f5f8ec;stroke-width:0px" />
  </g>
</svg>
